<?xml version="1.0" encoding="utf-8"?>
<!-- Generator: Adobe Illustrator 24.3.0, SVG Export Plug-In . SVG Version: 6.00 Build 0)  -->
<svg version="1.1" id="Layer_1" xmlns="http://www.w3.org/2000/svg" xmlns:xlink="http://www.w3.org/1999/xlink" x="0px" y="0px"
	 viewBox="0 0 171.42 171.03" style="enable-background:new 0 0 171.42 171.03;" xml:space="preserve">
<style type="text/css">
	.st0{fill:#FEB552;}
	.st1{fill:#FEB552;stroke:#FEB552;stroke-width:2;stroke-miterlimit:10;}
</style>
<path class="st1" d="M170.41,38.34c0-2.62-0.91-3.53-3.52-3.54c-3.61-0.02-7.23,0-10.84-0.01c-0.57,0-1.15,0.11-1.7-0.12
	c-0.01-0.12-0.05-0.24-0.02-0.35c0.05-0.16,0.13-0.32,0.22-0.47c2.1-3.74,2.59-7.66,1.3-11.77c-0.47-1.47-0.97-2.94-1.52-4.38
	c-1.17-3.05-2.1-6.19-3.58-9.12c-2.63-5.19-8.75-8.31-14.5-7.44c-2.19,0.33-4.19,1.15-6.16,2.09c-9.89,4.69-19.77,9.4-29.65,14.09
	c-0.51,0.24-0.98,0.61-1.66,0.61c-1.73-1.09-3.65-1.76-5.78-1.75c-4.88,0-9.75,0-14.63,0c-1.76,0-3.39,0.46-4.94,1.28
	c-0.35,0.18-0.64,0.5-1.24,0.45c-0.39-0.18-0.91-0.43-1.42-0.67C60.73,12.46,50.69,7.69,40.65,2.92c-1.77-0.84-3.59-1.48-5.54-1.78
	c-5.73-0.87-11.94,2.25-14.46,7.47c-2.1,4.34-3.57,8.94-5.11,13.49c-1.22,3.58-0.86,7.1,0.65,10.55c0.3,0.67,0.89,1.21,0.95,2.13
	c-0.59,0-1.15,0-1.72,0c-3.5,0-7,0-10.5,0c-0.46,0-0.92-0.03-1.38,0.03c-1.54,0.2-2.36,1.05-2.5,2.58
	c-0.03,0.34-0.02,0.69-0.02,1.03c0,5.57,0,11.13,0,16.7c0,0.46-0.01,0.92,0.06,1.37c0.19,1.3,1.17,2.24,2.39,2.32
	c1.18,0.08,2.27-0.77,2.65-2.02c0.17-0.56,0.15-1.13,0.15-1.71c0-4.53-0.01-9.07,0.01-13.6c0-0.49-0.19-1.03,0.3-1.52
	c5.69,0,11.42,0.01,17.15-0.01c0.53,0,1.01,0.16,1.51,0.3c6.79,1.87,13.58,3.74,20.37,5.62c0.47,0.13,1.03,0.11,1.45,0.71
	c-4.79,7.43-9.04,15.2-12.66,23.11c-9.52,0-18.79,0-28.13,0c0-0.86-0.02-1.6,0.01-2.35c0.02-0.65-0.09-1.26-0.36-1.84
	c-0.47-1-1.66-1.59-2.71-1.41c-1.17,0.21-2.05,1.08-2.12,2.38c-0.1,1.83-0.08,3.67-0.05,5.51c0.04,2.09,0.99,3.01,3.11,3.03
	c2.47,0.03,4.93,0,7.4,0.02c0.44,0,0.92-0.17,1.36,0.24c0,0.59,0,1.21,0,1.84c0,29.66,0,59.33,0,88.99c0,0.74-0.07,1.49,0.19,2.22
	c0.41,1.16,1.04,1.65,2.28,1.69c0.34,0.01,0.69,0,1.03,0c46.19,0,92.38,0,138.57,0c0.34,0,0.69,0.01,1.03,0
	c1.23-0.04,1.9-0.53,2.3-1.68c0.17-0.5,0.17-1.01,0.17-1.53c0-4.53,0-9.07,0-13.6c0-0.52,0-1.03-0.17-1.53
	c-0.4-1.15-1.48-1.94-2.6-1.87c-1.15,0.07-2.14,0.94-2.36,2.15c-0.09,0.5-0.09,1.03-0.09,1.54c-0.01,3.21,0.01,6.43-0.01,9.64
	c0,0.56,0.16,1.15-0.19,1.71c-17.17,0-34.34,0-51.6,0c0-29.23,0-58.36,0-87.49c1.55,2.34,2.65,4.79,3.77,7.23
	c4.69,10.27,7.96,20.98,10,32.07c0.31,1.69,0.55,3.39,0.94,5.07c0.43,1.89,2.26,2.68,3.85,1.74c0.61-0.36,0.98-0.95,1.39-1.5
	c3.1-4.28,6.07-8.63,8.69-13.22c0.33-0.58,0.72-1.12,1.16-1.78c2.96,2.21,5.84,4.29,8.63,6.48c2.21,1.73,4.31,3.61,6.49,5.38
	c1.07,0.87,2.24,0.98,3.18,0.35c1.07-0.71,1.44-1.7,1.19-2.98c-0.26-1.35-0.41-2.72-0.66-4.07c-2.15-11.69-5.18-23.14-9.69-34.16
	c-0.38-0.92-0.69-1.87-1.04-2.82c4.71,0,9.27,0,13.89,0c0,0.75,0,1.37,0,2c0,21.06,0,42.12,0,63.17c0,0.57-0.02,1.15,0.03,1.72
	c0.14,1.44,1.08,2.4,2.39,2.5c1.33,0.09,2.5-0.86,2.73-2.33c0.1-0.62,0.06-1.26,0.06-1.89c0-21.12,0-42.23,0-63.35
	c0-0.62,0-1.23,0-1.95c2.9,0,5.64,0.01,8.38,0c2.64-0.01,3.56-0.88,3.56-3.48C170.42,60.48,170.42,49.41,170.41,38.34z
	 M103.52,21.63c10.04-4.78,20.09-9.53,30.11-14.33c5.39-2.58,9.77-0.23,11.84,2.63c0.55,0.75,0.95,1.58,1.27,2.43
	c1.34,3.53,2.69,7.06,3.96,10.62c1.38,3.87,0.69,7.33-2.31,10.23c-1.14,1.11-2.55,1.75-4.05,2.17c-13.36,3.68-26.73,7.35-40.1,11.02
	c-0.32,0.09-0.65,0.25-1.06-0.03c0-4,0-8.06,0-12.16c2.56-1.72,5.29-3.17,8.05-4.55c5.49-2.73,11.09-5.22,17.06-6.76
	c2.45-0.63,4.94-1,7.49-0.84c2.13,0.14,4.04,0.76,5.5,2.43c0.26,0.3,0.56,0.58,0.87,0.83c0.91,0.7,2.13,0.73,3.04,0.09
	c0.91-0.64,1.3-1.8,0.96-2.9c-0.19-0.62-0.57-1.12-0.99-1.6c-1.82-2.06-4.12-3.23-6.79-3.73c-3.86-0.72-7.66-0.22-11.41,0.71
	c-6.37,1.59-12.39,4.1-18.19,7.17c-1.47,0.78-2.92,1.58-4.39,2.35c-0.34,0.18-0.65,0.51-1.2,0.32c-0.13-1.77-0.06-3.61-0.78-5.24
	C102.63,21.9,103.12,21.82,103.52,21.63z M78.88,21.36c4.58,0.12,9.17,0.01,13.75,0.04c3.31,0.02,5.22,1.92,5.25,5.24
	c0.03,3.44,0.01,6.88,0.01,10.31c0,3.38,0.01,6.76,0,10.14c-0.02,3.55-1.87,5.45-5.38,5.47c-4.53,0.03-9.05,0.02-13.58,0
	c-3.5-0.02-5.42-1.94-5.43-5.44c-0.02-6.76,0.05-13.52-0.03-20.28C73.41,23.46,75.81,21.28,78.88,21.36z M27.33,35.46
	c-3.33-0.91-5.71-2.82-6.88-6.12c-0.74-2.09-0.58-4.19,0.16-6.23c1.33-3.66,2.65-7.32,4.11-10.92c2.16-5.32,7.37-7.44,12.56-5.03
	c10.39,4.84,20.72,9.8,31.07,14.71c0.2,0.1,0.38,0.24,0.7,0.45c-0.72,1.77-0.83,3.65-0.81,5.54c-0.8,0.2-1.27-0.31-1.8-0.59
	c-3.78-2.03-7.57-4.07-11.54-5.72c-4.88-2.02-9.86-3.75-15.12-4.46c-2.87-0.39-5.72-0.33-8.52,0.47c-2.03,0.58-3.76,1.66-5.19,3.23
	c-0.43,0.47-0.81,0.97-1.04,1.57c-0.44,1.14-0.09,2.36,0.89,3.06c0.89,0.64,2.13,0.62,3.04-0.09c0.32-0.24,0.6-0.53,0.87-0.83
	c1.46-1.67,3.38-2.27,5.5-2.42c3.02-0.21,5.95,0.32,8.82,1.19c8.49,2.56,16.4,6.43,24.03,11.03c0,4.17,0,8.17,0,12.14
	c-0.62,0.24-1.09-0.05-1.58-0.18C53.52,42.64,40.43,39.04,27.33,35.46z M52.56,47.8c2.03,0.57,4.01,1.13,5.98,1.67
	c3.25,0.9,6.51,1.8,9.76,2.7c0.55,0.15,1.12,0.23,1.47,0.79c1.35,2.18,3.3,3.61,5.99,4.44c-2.36,3.61-4.8,6.98-6.86,10.59
	c-2.04,3.58-4.05,7.18-5.86,10.89c-1.83,3.77-3.45,7.62-4.94,11.53c-1.46,3.85-2.79,7.75-3.93,11.71
	c-1.15,3.99-2.04,8.05-2.93,12.17c-0.69-0.28-0.86-0.8-1.13-1.21c-2.08-3.09-4.03-6.26-5.83-9.53c-0.17-0.3-0.34-0.6-0.51-0.9
	c-1.36-2.28-2.63-2.59-4.79-1.12c-3.51,2.38-7,4.8-10.31,7.45c-0.44,0.35-0.84,0.79-1.67,1.06C31.49,87.56,39.89,66.87,52.56,47.8z
	 M69.94,164.86c-17.24,0-34.42,0-51.7,0c0-29.88,0-59.74,0-89.76c4.64,0,9.17,0,13.82,0c-0.93,2.48-1.83,4.87-2.74,7.27
	c-3.32,8.76-5.66,17.78-7.49,26.95c-0.46,2.3-0.78,4.63-1.2,6.94c-0.23,1.27,0.13,2.31,1.23,2.96c1.11,0.65,2.21,0.44,3.18-0.38
	c0.66-0.55,1.33-1.09,1.98-1.66c3.76-3.29,7.76-6.27,11.81-9.19c0.41-0.3,0.83-0.6,1.36-0.98c0.88,1.43,1.75,2.76,2.54,4.14
	c2.21,3.9,4.89,7.49,7.47,11.14c0.23,0.33,0.49,0.65,0.79,0.9c1.56,1.32,3.71,0.71,4.2-1.28c0.43-1.72,0.65-3.49,0.97-5.24
	c2.46-13.27,6.69-25.93,12.83-37.95c0.18-0.35,0.38-0.7,0.59-1.04c0.05-0.07,0.2-0.07,0.36-0.12
	C69.94,106.63,69.94,135.68,69.94,164.86z M96.03,164.89c-6.93,0-13.78,0-20.72,0c0-29.94,0-59.8,0-89.75c6.89,0,13.75,0,20.72,0
	C96.03,104.98,96.03,134.83,96.03,164.89z M74.04,69.74c2.37-4.2,5.09-8.05,7.95-11.92c2.53,0,4.93,0,7.29,0
	c2.42,2.87,7.11,9.92,7.91,11.92C89.51,69.74,81.87,69.74,74.04,69.74z M144.38,110.04c-0.65-0.16-0.98-0.49-1.34-0.78
	c-3.36-2.69-6.87-5.17-10.44-7.57c-0.38-0.26-0.75-0.54-1.16-0.73c-1.23-0.56-2.37-0.29-3.22,0.77c-0.32,0.4-0.57,0.86-0.82,1.31
	c-1.97,3.5-4.05,6.93-6.28,10.27c-0.22,0.33-0.36,0.72-0.93,1.04c-0.99-4.04-1.78-8.06-2.93-12c-1.17-4.01-2.5-7.97-3.96-11.88
	c-1.44-3.87-3.04-7.68-4.86-11.38c-1.85-3.75-3.84-7.43-5.93-11.05c-2.07-3.57-4.45-6.94-6.69-10.31c0.07-0.35,0.24-0.47,0.48-0.55
	c2.19-0.75,3.94-2.07,5.2-4.02c0.25-0.39,0.55-0.71,1.04-0.84c5.4-1.48,10.8-2.98,16.3-4.51
	C131.48,66.83,139.87,87.52,144.38,110.04z M165.03,69.75c-9.34,0-18.6,0-28.03,0c-3.66-8.01-7.93-15.76-12.7-23.23
	c0.56-0.5,1.15-0.53,1.69-0.68c6.61-1.84,13.23-3.66,19.84-5.5c0.89-0.25,1.78-0.37,2.7-0.37c4.93,0.02,9.86,0.01,14.79,0.01
	c0.51,0,1.02,0,1.71,0C165.03,49.99,165.03,59.83,165.03,69.75z"/>
</svg>
