<?xml version="1.0" encoding="utf-8"?>
<!-- Generator: Adobe Illustrator 24.3.0, SVG Export Plug-In . SVG Version: 6.00 Build 0)  -->
<svg version="1.1" id="Layer_1" xmlns="http://www.w3.org/2000/svg" xmlns:xlink="http://www.w3.org/1999/xlink" x="0px" y="0px"
	 viewBox="0 0 212.13 171.14" style="enable-background:new 0 0 212.13 171.14;" xml:space="preserve">
<style type="text/css">
	.st0{fill:#FEB552;}
	.st1{fill:#FEB552;stroke:#FEB552;stroke-width:2;stroke-miterlimit:10;}
</style>
<g>
	<path class="st0" d="M212.11,80.53c0-11.68-0.01-23.36,0.01-35.03c0-2.27-0.21-4.49-0.96-6.64c-2.39-6.85-8.7-11.38-16.14-11.41
		c-13.35-0.05-26.69-0.02-40.04-0.02c-0.79,0-1.59,0-2.43,0c-0.46-0.7-0.91-1.35-1.33-2.02c-4.73-7.55-9.51-15.08-14.16-22.69
		c-1.21-1.97-2.69-2.72-4.98-2.71C114.75,0.07,97.41,0.08,80.07,0c-2.42-0.01-3.88,0.89-5.1,2.9c-4.62,7.54-9.35,15.01-14.04,22.51
		c-0.42,0.67-0.75,1.41-1.46,2.03c-3.53,0-7.16,0-10.78-0.01c-0.2,0-0.4-0.09-0.77-0.18c0-1.07,0.02-2.15,0-3.22
		c-0.12-5.69-4.31-10.13-9.97-10.31c-4.78-0.15-9.58-0.15-14.36,0c-5.57,0.18-9.75,4.56-9.93,10.14c-0.04,1.23-0.01,2.46-0.01,3.85
		c-2.17,0.62-4.08,1.28-5.77,2.43c-5.26,3.57-7.85,8.55-7.85,14.9c0,28.51,0,57.01,0,85.52c0,7.91-0.07,15.81,0.03,23.72
		c0.08,5.83,2.66,10.46,7.41,13.82c3.25,2.3,6.94,3.06,10.9,3.06c58.46-0.03,116.92-0.02,175.38-0.02c0.58,0,1.16,0.01,1.74-0.02
		c5.29-0.26,9.65-2.4,12.96-6.55c2.64-3.31,3.68-7.13,3.68-11.35C212.09,128.98,212.11,104.76,212.11,80.53z M80.54,6.99
		c17.04,0,33.99,0,51.09,0c4.25,6.82,8.42,13.5,12.71,20.37c-4.21,0-8.1,0-12,0c-0.69-0.6-0.92-1.47-1.31-2.23
		c-1.37-2.72-2.82-5.4-4.04-8.19c-1.04-2.37-2.61-3.53-5.23-3.28c-1.29,0.12-2.61,0.02-3.91,0.02c-9.14,0-18.28,0.07-27.41-0.04
		c-2.62-0.03-4.17,0.93-5.24,3.29c-1.58,3.5-3.39,6.89-5.14,10.4c-3.99,0-7.96,0-12.24,0C72.1,20.46,76.31,13.74,80.54,6.99z
		 M124.46,27.34c-12.3,0-24.37,0-36.76,0c1.15-2.33,2.23-4.51,3.32-6.72c9.98,0,19.89,0,30.08,0C122.2,22.81,123.29,25,124.46,27.34
		z M20.53,24.15c0.1-2.2,1.36-3.56,3.53-3.59c4.49-0.07,8.99-0.07,13.48,0c2.09,0.03,3.35,1.34,3.47,3.41
		c0.06,1.07,0.01,2.15,0.01,3.34c-6.83,0-13.53,0-20.49,0C20.52,26.16,20.48,25.15,20.53,24.15z M194.29,164.28
		c-58.82-0.08-117.65-0.08-176.47,0c-6,0.01-11.01-4.47-10.99-10.88c0.1-30.03,0.04-60.06,0.05-90.09c0-0.5-0.1-1.02,0.24-1.61
		c18.01,0,36.09,0,54.45,0c-11.83,15.05-16.26,31.76-12.22,50.33c2.94,13.51,10,24.64,20.94,33.14
		c22.53,17.5,53.95,16.19,74.98-2.82c21.19-19.15,26.77-54.61,5.34-80.71c18.32,0,36.36,0,54.34,0c0.55,0.54,0.37,1.15,0.37,1.71
		c0.01,29.96-0.03,59.91,0.04,89.87C205.37,160.11,200.13,164.29,194.29,164.28z M106.25,47.94c28.21,0.01,51.13,23.03,51.12,51.33
		c-0.01,28.35-23.05,51.39-51.35,51.35c-28.24-0.04-51.24-23.05-51.23-51.25C54.79,70.84,77.72,47.92,106.25,47.94z M205.28,54.58
		c-0.92,0.36-1.65,0.22-2.36,0.22c-19.15,0.01-38.29-0.01-57.44,0.03c-1.39,0-2.45-0.39-3.53-1.25
		c-21.12-16.7-50.51-16.73-71.67-0.06c-1.14,0.9-2.25,1.32-3.73,1.32C47.47,54.8,28.4,54.81,9.32,54.81c-0.71,0-1.43,0-1.99,0
		c-0.63-0.53-0.46-1.07-0.46-1.55c-0.02-2.9-0.05-5.8,0.01-8.7c0.11-5.89,4.3-10.11,10.17-10.28c0.65-0.02,1.31-0.01,1.96-0.01
		c58.02,0,116.04,0,174.07,0c1.01,0,2.04-0.03,3.04,0.07c4.22,0.4,7.95,3.46,8.8,7.59C205.8,46.13,205.22,50.41,205.28,54.58z"/>
	<path class="st0" d="M37.03,68.44c-6.45-0.03-12.9-0.03-19.35,0c-2.71,0.01-4,1.3-4.02,4.01c-0.04,4.13-0.03,8.26,0,12.39
		c0.02,2.87,1.24,4.07,4.13,4.1c3.19,0.03,6.38,0.01,9.57,0.01c3.26,0,6.52,0.03,9.79-0.01c2.63-0.03,3.85-1.24,3.88-3.88
		c0.04-4.2,0.03-8.41,0-12.61C41,69.71,39.76,68.45,37.03,68.44z M34.06,82.09c-4.53,0-8.91,0-13.42,0c0-2.2,0-4.34,0-6.62
		c4.4,0,8.85,0,13.42,0C34.06,77.58,34.06,79.71,34.06,82.09z"/>
	<path class="st0" d="M184.69,130.1c-7.57,0.02-13.62,6.15-13.58,13.74c0.04,7.53,6.24,13.66,13.76,13.6
		c7.51-0.06,13.67-6.29,13.61-13.78C198.43,136.11,192.29,130.07,184.69,130.1z M184.81,150.61c-3.79,0.01-6.87-3.12-6.83-6.94
		c0.04-3.73,3.06-6.78,6.76-6.79c3.77-0.01,6.87,3.12,6.85,6.94C191.57,147.49,188.46,150.6,184.81,150.61z"/>
	<path class="st0" d="M105.62,143.71c24.66,0.15,44.65-19.35,44.92-43.93c0.28-24.96-19.56-44.83-44.55-44.95
		C81.61,54.71,61.65,74.68,61.56,99.3C61.47,123.44,81.42,143.57,105.62,143.71z M105.99,61.59c20.86,0.09,37.73,16.91,37.7,37.58
		c-0.03,20.99-16.79,37.69-37.78,37.67c-20.73-0.02-37.49-16.9-37.5-37.74C68.41,78.6,85.54,61.5,105.99,61.59z"/>
	<path class="st0" d="M85.7,106.73c5.8,5.35,11.93,10.35,17.94,15.47c1.7,1.44,3.16,1.45,4.88-0.02c6.07-5.17,12.2-10.27,18.1-15.62
		c4.5-4.08,6.75-9.39,6.76-15.49c0.01-6.56-2.98-11.48-8.91-14.25c-6.01-2.8-11.7-1.83-16.83,2.39c-0.5,0.41-0.97,0.86-1.58,1.4
		c-0.75-0.66-1.32-1.21-1.94-1.71c-9.09-7.45-22.77-2.77-25.02,8.77C77.66,95.14,80.19,101.65,85.7,106.73z M90.56,83
		c3.44-1.51,6.67-1.04,9.51,1.45c1.14,1,2.16,2.15,3.27,3.19c1.91,1.79,3.59,1.79,5.52-0.03c1.06-0.99,2.03-2.07,3.1-3.05
		c2.76-2.52,6.42-3.09,9.69-1.55c3.22,1.52,5.17,4.78,4.96,8.47c-0.2,3.59-1.37,6.9-3.97,9.4c-5.22,5.02-10.95,9.46-16.55,14.4
		c-5.55-4.78-10.94-9.29-16.16-13.98c-2.87-2.58-4.17-6.05-4.38-9.89C85.34,87.76,87.29,84.43,90.56,83z"/>
</g>
</svg>
