<?xml version="1.0" encoding="utf-8"?>
<!-- Generator: Adobe Illustrator 24.3.0, SVG Export Plug-In . SVG Version: 6.00 Build 0)  -->
<svg version="1.1" id="Layer_1" xmlns="http://www.w3.org/2000/svg" xmlns:xlink="http://www.w3.org/1999/xlink" x="0px" y="0px"
	 viewBox="0 0 205.53 178.21" style="enable-background:new 0 0 205.53 178.21;" xml:space="preserve">
<style type="text/css">
	.st0{fill:#FEB552;}
	.st1{fill:#FEB552;stroke:#FEB552;stroke-width:2;stroke-miterlimit:10;}
</style>
<g>
	<path class="st0" d="M205.52,108.63c0-14.16,0-28.33,0-42.49c0-2.06-0.08-4.11-0.35-6.16c-2-15.23-13.6-28.02-28.52-31.49
		c-4.44-1.03-8.93-1.08-13.43-1.06c-1.79,0.01-1.58,0.35-2.19-1.66c-1.34-4.43-2.61-8.88-3.98-13.3
		c-2.41-7.76-8.75-12.43-16.9-12.45c-13.52-0.02-27.04,0-40.56-0.01c-1.56,0-3.09,0.16-4.58,0.57c-5.97,1.65-10.02,5.42-11.97,11.28
		c-1.56,4.7-2.87,9.47-4.31,14.21c-0.42,1.41-0.77,1.55-2.42,1.38c-1.32-0.14-0.71-1.12-0.84-1.76c-0.06-0.31-0.01-0.64-0.01-0.96
		c-0.09-6.7-4.35-10.95-11.05-10.99c-3.73-0.02-7.48,0.19-11.2-0.04c-7.86-0.49-12.69,5.26-12.06,11.95
		c0.15,1.61,0.15,1.78-1.77,1.87c-7.89,0.38-15.2,2.68-21.63,7.3C6.18,43.11,0.15,54.48,0.08,68.7
		c-0.14,28.26-0.04,56.53-0.04,84.79c0,0.45,0,0.9,0.03,1.35c0.4,6.27,4.74,11.35,10.86,12.69c1.39,0.31,2.82,0.28,4.23,0.28
		c22.28,0,44.55,0.01,66.83-0.02c1.34,0,2.46,0.33,3.64,0.98c22.86,12.58,45.74,12.61,68.6,0.01c1.17-0.65,2.29-0.99,3.63-0.99
		c8.56,0.04,17.13,0.02,25.69,0.02c3.03,0,6.05,0.02,9.08-0.05c2.72-0.06,5.18-0.97,7.34-2.6c3.82-2.88,5.57-6.77,5.56-11.53
		C205.51,138.63,205.52,123.63,205.52,108.63z M79.27,48.03c3.3-11.02,6.62-22.03,9.93-33.04c1.6-5.31,5.28-8.09,10.82-8.1
		c13.25-0.01,26.51-0.01,39.76,0c5.61,0,9.24,2.7,10.84,8.03c3.93,13.11,7.86,26.21,11.78,39.32c0.16,0.54,0.3,1.08,0.58,2.11
		c-12.9-9.99-27.05-15.18-42.96-15.19c-15.95-0.02-30.13,5.12-42.72,14.85c-0.1-0.09-0.2-0.18-0.3-0.27
		C77.75,53.17,78.5,50.59,79.27,48.03z M53.39,20.52c3.53,0.12,7.06,0.01,10.59,0.03c3.47,0.01,4.59,1.15,4.6,4.65
		c0,0.13,0,0.26,0,0.39c-0.01,1.84-0.01,1.84-1.92,1.84c-2.82,0-5.65,0-8.47,0c-2.95,0-5.91-0.03-8.86,0.02
		c-1.01,0.02-1.31-0.33-1.35-1.32C47.86,22.38,48.39,20.35,53.39,20.52z M34.3,159.29c-0.02,1.69-0.02,1.71-1.67,1.71
		c-5.02,0.01-10.04,0-15.06,0c-1.29,0-2.58,0.03-3.86-0.01c-3.82-0.12-6.66-2.95-6.81-6.75c-0.02-0.58-0.01-1.16-0.01-1.74
		c0-26.07,0-52.13,0-78.2c0-0.19,0-0.39,0-0.58c0-1.93-0.14-1.81,1.73-1.81c7.98,0,15.96,0,23.94,0c1.73,0,1.74,0.01,1.74,1.84
		c0,14.22,0,28.45,0,42.67c0,13.97,0,27.93,0,41.9C34.3,158.65,34.3,158.97,34.3,159.29z M37.39,65.08c-4.69,0-9.39,0-14.08,0
		c0,0,0,0,0,0c-4.76,0-9.52,0-14.27,0c-2.01,0-2.06-0.05-1.7-2.08c1.6-8.93,5.92-16.24,13.15-21.74c5.96-4.53,12.73-6.89,20.24-6.98
		c1.93-0.02,3.86-0.02,5.79-0.01C47.96,34.3,48,34.32,48,35.8c0.02,4.69,0.01,9.39,0,14.08c-0.01,1.93,0.05,3.86-0.1,5.78
		c-0.4,5.2-4.31,8.99-9.55,9.36C38.03,65.05,37.71,65.08,37.39,65.08z M51.52,161.01c-2.9,0-5.79,0.01-8.69,0
		c-1.65-0.01-1.65-0.02-1.67-1.74c0-0.26,0-0.52,0-0.77c0-28.14,0-56.27,0-84.41c0-0.32,0.03-0.65-0.01-0.96
		c-0.13-1.04,0.21-1.53,1.33-1.87c7.69-2.4,12.28-8.63,12.37-16.74c0.06-5.99,0.01-11.98,0.01-17.96c0-0.45,0-0.9,0.01-1.35
		c0.01-0.64,0.33-0.92,0.97-0.91c1.09,0.02,2.19,0,3.28,0c5.15,0,10.3-0.01,15.45,0c1.65,0,1.72,0.08,1.26,1.6
		c-3.02,10.04-6.06,20.06-9.06,30.11c-0.29,0.98-0.89,1.7-1.47,2.46c-9.56,12.7-14.28,27.04-13.81,42.88
		c0.56,18.89,7.81,34.94,21.5,48.04c0.44,0.42,1.09,0.7,1.27,1.63C66.58,161.01,59.05,161.01,51.52,161.01z M119.81,171.31
		c-34.86-0.5-62.14-28.3-61.5-63.03c0.61-33.1,27.61-60.6,62.23-60.26c35.44,0.36,61.68,29.64,61.02,62.83
		C180.92,143.22,154.76,171.11,119.81,171.31z M198.73,154.41c-0.26,3.72-3.08,6.5-6.8,6.58c-3.41,0.07-6.82,0.02-10.23,0.02
		c-4.7,0-9.4,0.01-14.1-0.01c-0.62,0-1.26,0.15-2.13-0.26c1.97-1.95,3.84-3.71,5.56-5.62c21.7-24.01,23.27-60.76,3.67-86.47
		c-0.87-1.14-1.53-2.33-1.94-3.72c-2.84-9.55-5.72-19.09-8.58-28.63c-0.09-0.31-0.18-0.62-0.28-0.92c-0.25-0.71-0.08-1.05,0.75-1.11
		c19.53-1.28,32.14,12.66,33.84,27.07c0.19,1.6,0.28,3.2,0.28,4.81c0,28.9,0,57.81,0,86.71
		C198.74,153.38,198.76,153.9,198.73,154.41z"/>
	<path class="st0" d="M158.31,86.6c-6.09-0.99-12.2-1.89-18.32-2.75c-1.11-0.16-1.69-0.6-2.14-1.58c-1.49-3.28-3.07-6.52-4.61-9.78
		c-1.35-2.85-2.62-5.73-4.06-8.53c-2.27-4.41-7.09-6.55-11.89-5.31c-3.24,0.84-5.55,2.85-6.98,5.89
		c-2.77,5.87-5.58,11.72-8.32,17.61c-0.49,1.05-1.08,1.54-2.26,1.71c-6.11,0.86-12.22,1.78-18.31,2.78c-4.7,0.77-7.85,3.5-9.1,8.11
		c-1.09,4.06,0.09,7.63,3.01,10.62c4.32,4.41,8.62,8.85,13.01,13.2c1.1,1.09,1.57,2.07,1.24,3.69c-0.76,3.71-1.31,7.47-1.87,11.22
		c-0.48,3.24-1.21,6.45-1.42,9.32c-0.06,5.17,2.79,9.2,7.27,10.69c3.13,1.04,6.08,0.56,8.92-1c5.41-2.97,10.84-5.91,16.22-8.94
		c0.92-0.52,1.58-0.45,2.43,0.03c2.8,1.58,5.63,3.1,8.46,4.64c3.05,1.66,6.04,3.45,9.18,4.92c3.68,1.73,7.34,1.24,10.56-1.2
		c3.21-2.43,4.6-5.79,4.1-9.83c-0.2-1.59-0.48-3.18-0.74-4.77c-0.85-5.27-1.69-10.54-2.59-15.79c-0.17-0.99,0-1.7,0.76-2.39
		c1-0.9,1.9-1.92,2.85-2.88c3.52-3.58,7.03-7.17,10.56-10.74c2.07-2.09,3.42-4.51,3.57-7.49C168.16,92.28,164.26,87.56,158.31,86.6z
		 M159.26,100.89c-4.43,4.49-8.85,8.99-13.27,13.48c-0.54,0.55-1.05,1.14-1.63,1.64c-1.36,1.18-1.7,2.63-1.4,4.35
		c0.92,5.33,1.79,10.66,2.68,15.99c0.34,2.03,0.66,4.06,1.01,6.09c0.28,1.66-0.06,3.09-1.51,4.08c-1.43,0.98-2.88,0.81-4.36-0.01
		c-6.02-3.33-12.09-6.57-18.08-9.96c-1.96-1.11-3.6-1.11-5.57,0.01c-5.75,3.28-11.6,6.4-17.41,9.57c-0.51,0.28-1.01,0.57-1.55,0.76
		c-2.52,0.9-5.09-0.93-5.06-3.61c0-0.38,0.07-0.77,0.13-1.15c1.15-6.98,2.26-13.97,3.49-20.94c0.4-2.28-0.02-4.03-1.75-5.72
		c-4.92-4.81-9.68-9.79-14.53-14.69c-1.09-1.1-1.86-2.31-1.64-3.93c0.25-1.8,1.5-3.13,3.41-3.44c4.18-0.69,8.38-1.3,12.58-1.93
		c2.8-0.42,5.59-0.87,8.39-1.23c1.9-0.25,3.14-1.18,3.95-2.94c2.95-6.36,5.97-12.68,8.96-19.01c0.25-0.52,0.48-1.06,0.79-1.54
		c1.46-2.23,4.47-2.25,5.97-0.03c0.32,0.48,0.55,1.02,0.8,1.54c2.94,6.22,5.93,12.41,8.78,18.67c0.96,2.12,2.4,3.08,4.68,3.39
		c6.81,0.93,13.61,2,20.4,3.08c2.21,0.35,3.48,1.89,3.48,3.95C161.07,98.87,160.24,99.9,159.26,100.89z"/>
	<path class="st0" d="M102.31,27.35c0.63,0.09,1.28,0.07,1.93,0.07c5.21,0,10.42,0,15.63,0c5.27,0,10.55,0,15.82,0
		c0.58,0,1.16,0.02,1.73-0.05c1.72-0.21,2.96-1.54,3.05-3.21c0.09-1.64-1.03-3.09-2.74-3.46c-0.62-0.13-1.27-0.15-1.91-0.15
		c-10.61-0.01-21.23-0.01-31.84-0.01c-0.71,0-1.41-0.01-2.1,0.2c-1.61,0.49-2.55,1.81-2.45,3.48
		C99.53,25.86,100.67,27.12,102.31,27.35z"/>
	<path class="st0" d="M34.34,48.03c-2.3-0.11-4.62-0.11-6.93,0c-2.09,0.1-3.37,1.55-3.32,3.48c0.05,1.83,1.35,3.16,3.34,3.29
		c1.15,0.08,2.31,0.01,3.46,0.01c0,0,0,0,0,0.01c1.09,0,2.18,0.05,3.27-0.01c2.08-0.11,3.5-1.47,3.55-3.32
		C37.78,49.63,36.41,48.13,34.34,48.03z"/>
</g>
</svg>
