<?xml version="1.0" encoding="utf-8"?>
<!-- Generator: Adobe Illustrator 24.3.0, SVG Export Plug-In . SVG Version: 6.00 Build 0)  -->
<svg version="1.1" id="Layer_1" xmlns="http://www.w3.org/2000/svg" xmlns:xlink="http://www.w3.org/1999/xlink" x="0px" y="0px"
	 viewBox="0 0 192.75 192.58" style="enable-background:new 0 0 192.75 192.58;" xml:space="preserve">
<style type="text/css">
	.st0{fill:#FEB552;}
	.st1{fill:#FEB552;stroke:#FEB552;stroke-width:2;stroke-miterlimit:10;}
</style>
<g>
	<path class="st0" d="M192.71,68.68c0-2.94-0.47-5.85-1.77-8.5c-3.69-7.56-9.65-11.8-18.22-11.92c-5.94-0.08-11.87-0.01-17.81-0.03
		c-0.77,0-1.61,0.27-2.42-0.51c0-0.84,0-1.8,0-2.77c-0.01-8.59,0.06-17.19-0.07-25.78c-0.09-5.69-2.54-10.39-6.78-14.16
		C141.69,1.49,137,0,131.77,0C115.2,0.01,98.63,0,82.06,0C74.97,0,67.88,0.01,60.8,0c-2.59,0-5.12,0.35-7.54,1.28
		c-7.78,2.96-13.2,10.47-13.11,19.37c0.09,8.24,0.02,16.48,0.01,24.72c0,0.87,0.18,1.76-0.27,2.87c-0.99,0-1.88,0-2.76,0
		c-5.94,0.01-11.87-0.01-17.81,0.04c-5.02,0.04-9.28,2.01-12.9,5.37C1.86,57.87,0,63.23,0,69.35c0,17.9-0.01,35.8,0.01,53.69
		c0,3.38,0.38,6.72,1.93,9.79c3.82,7.56,10.07,11.44,18.47,11.69c5.84,0.18,11.69,0.03,17.54,0.05c0.68,0,1.41-0.2,2.22,0.36
		c0,0.76,0,1.64,0,2.51c0,8.42-0.01,16.83,0.01,25.25c0.01,3.8,1.06,7.33,3.14,10.51c3.91,5.96,9.4,9.28,16.59,9.34
		c10.63,0.09,21.26,0.03,31.9,0.03c13.47,0,26.94-0.02,40.4,0.01c6.01,0.02,11.05-2.15,15.08-6.56c3.55-3.88,5.23-8.51,5.21-13.79
		c-0.04-8.51-0.01-17.01,0-25.52c0-0.68-0.25-1.42,0.4-2.15c0.78,0,1.66,0,2.54,0c5.49,0,10.99,0,16.48,0
		c3.05,0,5.99-0.55,8.75-1.84c7.92-3.71,11.93-10.14,12-18.75C192.82,105.54,192.73,87.11,192.71,68.68z M48.21,20.37
		c0.06-5.35,2.56-9.26,7.55-11.43c1.74-0.76,3.58-0.9,5.45-0.9c19.05,0.01,38.09,0,57.14,0c4.7,0,9.39-0.08,14.09,0.03
		c5.04,0.11,8.73,2.48,10.97,7.04c0.64,1.29,0.99,2.66,0.99,4.09c0.02,9.56,0.01,19.13,0.01,28.96c-32.13,0-63.99,0-95.85,0
		c-0.54-0.4-0.37-0.97-0.37-1.48C48.18,37.91,48.11,29.14,48.21,20.37z M144.45,172c0.01,3.25-0.83,6.1-3.03,8.52
		c-2.6,2.85-5.82,4.07-9.69,4.07c-21.71-0.05-43.41-0.03-65.12-0.03c-2.21,0-4.43-0.06-6.64,0c-4.85,0.14-11.21-3.86-11.76-11.43
		c-0.04-0.53-0.02-1.06-0.02-1.59c0-18.96,0-37.92,0.01-56.88c0-0.69-0.16-1.41,0.24-2.22c32.01,0,63.88,0,95.7,0
		c0.48,0.74,0.28,1.47,0.28,2.15C144.44,133.73,144.41,152.87,144.45,172z M184.7,123.72c-0.02,6.84-4.06,10.65-8.27,12.04
		c-1.43,0.47-2.91,0.76-4.43,0.76c-6.11,0.01-12.23,0-18.34,0c-0.26,0-0.51-0.08-0.75-0.12c-0.71-0.68-0.4-1.53-0.4-2.29
		c-0.02-7.89-0.01-15.77-0.01-23.66c0-0.71,0.03-1.42-0.02-2.13c-0.16-2.27-1.33-3.57-3.57-3.94c-0.69-0.12-1.41-0.08-2.12-0.08
		c-33.59,0-67.17,0-100.76,0c-0.79,0-1.61-0.03-2.38,0.11c-2.17,0.41-3.36,1.81-3.46,4.05c-0.06,1.24-0.01,2.48-0.01,3.72
		c0,7.27,0.01,14.53-0.02,21.8c0,0.83,0.36,1.77-0.45,2.53c-6.37,0-12.75,0.1-19.13-0.03c-8.17-0.16-12.54-6.36-12.5-12.66
		c0.11-18.43,0.08-36.87,0.02-55.3c-0.02-5.68,3.7-10.48,8.77-11.91c1.4-0.4,2.79-0.41,4.2-0.42c8.95-0.02,17.9-0.01,26.85-0.01
		c32.35,0,64.69,0,97.04,0c9.13,0,18.25-0.01,27.38,0.01c5.08,0.01,8.77,2.35,11.09,6.83c0.95,1.84,1.28,3.86,1.28,5.91
		C184.73,87.21,184.76,105.47,184.7,123.72z"/>
	<path class="st0" d="M115.64,160.5c-7.71,0.03-15.42,0.02-23.13,0.02c-7.44,0-14.89,0-22.33,0c-0.71,0-1.42-0.04-2.13,0.03
		c-2.08,0.19-3.71,1.81-3.8,3.75c-0.1,2.1,1.43,3.91,3.61,4.22c0.61,0.09,1.24,0.04,1.86,0.04c15.07,0,30.13,0,45.2,0
		c0.71,0,1.43,0.05,2.12-0.08c1.74-0.31,2.82-1.42,3.32-3.07c0.43-1.42-0.15-2.64-1.08-3.65
		C118.32,160.72,117.04,160.49,115.64,160.5z"/>
	<path class="st0" d="M66.75,152.16c0.93,0.4,1.9,0.36,2.87,0.36c15.15,0,30.29,0,45.44,0c0.88,0,1.76,0.04,2.62-0.27
		c1.7-0.61,2.57-1.92,2.75-3.57c0.16-1.51-0.69-2.7-1.89-3.58c-0.93-0.68-2.03-0.53-3.08-0.53c-7.71-0.01-15.41-0.01-23.12-0.01
		c-7.44,0-14.88,0-22.32,0c-0.71,0-1.42-0.03-2.12,0.03c-1.89,0.15-3.33,1.49-3.61,3.3C64.02,149.61,65.08,151.44,66.75,152.16z"/>
	<path class="st0" d="M66.89,136.11c0.83,0.31,1.69,0.44,2.59,0.43c2.3-0.03,4.59-0.01,6.89-0.01c2.21,0,4.42-0.02,6.63,0.01
		c0.9,0.01,1.76-0.09,2.6-0.39c1.66-0.6,2.82-2.19,2.78-3.8c-0.04-1.64-1.26-3.25-2.92-3.69c-0.84-0.22-1.74-0.32-2.61-0.32
		c-4.42-0.03-8.83,0-13.25-0.02c-0.89,0-1.77,0.07-2.61,0.37c-1.68,0.59-2.78,2.15-2.75,3.82
		C64.28,134.08,65.32,135.52,66.89,136.11z"/>
</g>
</svg>
