<?xml version="1.0" encoding="UTF-8"?>
<svg id="Layer_2" data-name="Layer 2" xmlns="http://www.w3.org/2000/svg" viewBox="0 0 192 192.19">
  <defs>
    <style>
      .cls-1 {
        fill: #fbb353;
      }
    </style>
  </defs>
  <g id="Layer_1-2" data-name="Layer 1">
    <g>
      <path class="cls-1" d="M186.47,36.23c-.13-.6,1.71-2.63,2.16-3.38,4.34-7.32,4.53-18.59.37-26.02-1.91-3.41-4.7-6.01-8.7-6.61L45.99.39c-1.56.71-2.31,2.19-1.56,3.84.16.34,1.23,1.6,1.39,1.6h124.93c.03.77-.62,1.15-.94,1.86-2.46,5.48-3.08,11.76-1.96,17.66.52,2.75,1.55,5.32,2.91,7.74h-56.96c-.17,0-1.45.66-1.7.92-1.21,1.23-.85,3.41.56,4.33.24.16,1.78.73,1.89.73h23.72c-1.97,2.57-3.18,5.57-3.75,8.76l.03,127.01c-1.15,10.11-12.57,15.53-20.75,8.77-6.41-5.3-3.43-11.33-4.3-18.11-.18-1.36-.9-3.02-2.42-3.18h-30.17c-.91,0-1.72.05-2.34.87-.36.47-.55,1.06-.61,1.64-.06.54,0,1.11.27,1.57.15.25.36.46.58.66.26.23.54.44.85.6.84.43,1.75.26,2.65.26.53,0,1.05,0,1.58,0h23.65v6.16c0,.34.35,2.61.46,3.28.54,3.51,2.51,6.62,4.77,9.23H24.16c-.22,0-2.6-.85-3.06-1.05-2.41-1.01-4.33-2.56-5.65-4.8-.37-.62-1.93-4.01-1.93-4.42,0,0,0-8.4,0-8.4h46.39c1.59,0,3.19,0,4.78,0,.8,0,1.7.07,2.39-.43.63-.45,1.04-1.22,1.13-1.99.09-.85-.19-1.72-.73-2.38-.24-.3-.54-.55-.9-.7-.78-.32-1.68-.06-2.49-.09-.86-.03-1.72-.02-2.58-.02h-19.22V48.59c0-.17,1.12-2.78,1.33-3.15,1.72-3.18,4.85-5.29,8.27-6.29l50.33-.09c4.45-.49,4.98-5.33.4-5.98l-91.46-.04c-1.98-1.03-3.23-3.25-4.05-5.28-1.59-3.95-1.82-8.91-.95-13.05.73-3.51,2.3-7.8,6.07-8.87h24.28c3-1.2,2.65-5.31-.74-5.62-7.72.55-16.32-.68-23.93,0C5.96.74,2.26,6.89.92,12.09-.99,19.46,0,28.53,4.55,34.78c.3.41.83.69,1.12,1.14v.32C-.09,42.15-1.01,52.34.9,60.09c1.08,4.38,4.71,10.53,9.45,11.46.4.08,2.12.38,2.23.38h23.72v90.38H9.6c-.4,0-1.64,1.7-1.7,2.41-.29,3.43-.29,10.53.47,13.75,1.71,7.24,8.18,12.57,15.43,13.7h100.07c8.3-1.06,14.72-7.09,15.96-15.41.03-.23.29-.37.29-.45v-104.39h39.4c.11,0,1.83-.36,2.17-.45,8.97-2.24,11.25-16.34,9.96-24-.67-4.01-2.48-8.23-5.19-11.26ZM11.09,65.96c-1.02,0-3.02-3.07-3.47-4-2.54-5.26-2.56-12.76-.37-18.14.46-1.12,2.62-4.75,3.84-4.75h30.07c-1.98,2.73-3.9,5.75-4.47,9.16-.08.47-.39,2.78-.39,2.97v14.75H11.09ZM170.76,65.96s0,0,0,.01c-10.21,0-20.42,0-30.64-.01,0-4.77,0-9.54-.01-14.31,0-1.38,0-2.76.25-4.11.67-3.56,3.28-6.75,6.71-7.89,1.96-.65,4.07-.65,6.13-.63,2.85.02,5.7.03,8.55.05s6.08-.44,8.75.16c-1.39,4.57-3.2,8.38-3.18,13.35.01,4.66,1.15,9.32,3.42,13.4ZM183.25,63.7c-4.5,5.79-8.06-.22-9.33-4.83-1.3-4.7-1.28-9.29.28-13.93.6-1.79,2.3-5.37,4.28-5.81,2.51-.55,4.09.73,5.3,2.79,3.29,5.61,3.55,16.52-.53,21.78ZM185.61,25.35c-1.21,5.02-5.74,11.88-9.94,4.88-2.55-4.25-3.18-10.44-2.28-15.23.54-2.87,2.6-8.53,5.84-9.13,1.96-.36,3.81,1.91,4.67,3.43,2.57,4.56,2.93,11.03,1.71,16.05Z"/>
      <path class="cls-1" d="M128,107.8v-50.44c-.69-.76-1.5-1.5-2.61-1.5H51.04c-.5.05-2.08.56-2.35.83s-.78,1.85-.83,2.35v47.09c.15,1.93,1.71,3.03,3.55,3.17h73.61c1.2-.13,2.24-.53,2.98-1.5ZM57.4,103.68s-.76-.55-.37-.75c.79-.52,1.13-1.43,1.68-2.06,3-3.44,6.24-6.73,9.35-10.07.88-.95,2.41-3.57,3.92-3.57.58,0,2.95,2.55,3.55,3.19,3.16,3.39,7.2,7.64,10.08,11.2.42.52,1.07,1.37,1.11,2.06h-29.32ZM122.58,103.68h-27.45l-4.66-5.07v-.32c1.16-1.7,2.76-2.98,4.1-4.5,3.54-4.01,7.02-8.22,10.64-12.14.76-.83,2.47-1.11,3.37-.39l13.99,15.52v6.91ZM122.58,88c-2.09-1.92-4.03-4.06-5.98-6.16-1.51-1.62-3.01-3.91-4.86-5.22-2.7-1.91-6.89-1.81-9.52.17-2.13,1.61-4.64,5.23-6.52,7.3-1.96,2.15-4.03,4.19-5.99,6.34-1.01,1.1-1.87,2.61-3.2,3.54-.73.22-1.63-1.61-2.02-2.05-.82-.91-1.8-1.69-2.63-2.6-2.48-2.73-4.93-6.88-8.85-7.59-1.9-.34-5.05.65-6.45,1.99-.36.34-.45.82-.75,1.12-3.69,3.66-7.03,7.69-10.46,11.58-.46.52-1.12,1.37-1.87,1.3v-35.67s.52-.56.56-.56h68.53v26.52Z"/>
      <path class="cls-1" d="M54.48,146.33c-2.6.56-2.57,5.23,1.04,5.55l66.33-.18c2.25-.73,2.61-4.53.37-5.26l-67.74-.1Z"/>
      <path class="cls-1" d="M120.54,117.49l-65.3.09c-2.94.41-3.55,4.02-1.03,5.35h68.01c2.83-1.55,1.5-5.43-1.68-5.45Z"/>
      <path class="cls-1" d="M122.22,132.24l-67.74-.1c-3.13,1.3-1.94,5.53,1.41,5.55h64.64c3.2-.02,4.5-3.9,1.68-5.45Z"/>
      <path class="cls-1" d="M83.72,83.34c7.46,2.6,13.84-6.18,8.98-12.34-1.79-2.27-4.68-3.6-7.59-3.1-8.07,1.4-9.12,12.74-1.39,15.44ZM86.25,73.49c2.15-.34,3.26,2.91,1.8,4.07-3.14,2.49-6.09-3.39-1.8-4.07Z"/>
    </g>
  </g>
</svg>